<?xml version="1.0" standalone="no"?>
<!DOCTYPE svg PUBLIC "-//W3C//DTD SVG 20010904//EN"
 "http://www.w3.org/TR/2001/REC-SVG-20010904/DTD/svg10.dtd">
<svg version="1.0" xmlns="http://www.w3.org/2000/svg"
 width="250.000000pt" height="250.000000pt" viewBox="0 0 250.000000 250.000000"
 preserveAspectRatio="xMidYMid meet">

<g transform="translate(0.000000,250.000000) scale(0.100000,-0.100000)"
fill="#000000" stroke="none">
<path d="M1775 1563 c-22 -20 -75 -70 -117 -111 l-78 -75 -74 67 -74 66 -103
0 -104 0 85 -85 84 -84 65 -3 65 -3 -170 -160 -169 -160 135 -3 135 -3 63 68
62 67 123 -122 123 -123 149 3 148 3 -169 145 -168 145 -74 5 -73 5 78 80 c43
44 129 133 192 198 l114 117 -104 0 -104 -1 -40 -36z"/>
<path d="M560 1343 c-96 -70 -178 -132 -183 -137 -4 -6 -6 -29 -5 -51 l3 -40
153 -3 152 -3 0 -44 0 -45 45 0 45 0 -2 222 c-3 191 -5 223 -18 226 -9 1 -94
-55 -190 -125z m117 -150 c-3 -2 -46 -2 -98 -1 l-93 3 95 67 94 67 3 -65 c2
-37 1 -68 -1 -71z"/>
<path d="M853 1449 c-14 -14 -19 -301 -7 -333 5 -13 26 -16 121 -16 64 0 133
5 154 11 106 32 151 173 86 270 -41 61 -77 74 -217 77 -92 3 -128 0 -137 -9z
m274 -101 c39 -39 38 -96 -2 -138 -27 -29 -32 -30 -112 -30 l-83 0 0 101 0
101 85 -3 c77 -4 87 -7 112 -31z"/>
</g>
</svg>
