<?xml version="1.0" standalone="no"?>
<!DOCTYPE svg PUBLIC "-//W3C//DTD SVG 20010904//EN"
 "http://www.w3.org/TR/2001/REC-SVG-20010904/DTD/svg10.dtd">
<svg version="1.0" xmlns="http://www.w3.org/2000/svg"
 width="250.000000pt" height="250.000000pt" viewBox="0 0 250.000000 250.000000"
 preserveAspectRatio="xMidYMid meet">

<g transform="translate(0.000000,250.000000) scale(0.100000,-0.100000)"
fill="#000000" stroke="none">
<path d="M420 1260 l0 -161 48 3 47 3 0 155 0 155 -47 3 -48 3 0 -161z"/>
<path d="M590 1260 l0 -160 45 0 45 0 0 115 c0 70 4 115 10 115 6 0 36 -52 67
-115 57 -114 58 -115 93 -115 35 0 36 1 93 115 31 63 61 115 67 115 6 0 10
-45 10 -115 l0 -115 45 0 45 0 0 160 0 160 -79 0 -80 0 -47 -90 c-26 -49 -50
-90 -53 -90 -3 0 -28 41 -54 90 l-48 90 -80 0 -79 0 0 -160z"/>
<path d="M1292 1408 c-9 -12 -162 -299 -162 -305 0 -2 22 -3 49 -3 44 0 52 4
71 30 21 30 22 30 119 30 l97 0 17 -30 c16 -27 23 -30 68 -30 27 0 49 3 49 6
0 4 -36 76 -81 160 l-80 154 -68 0 c-43 0 -72 -5 -79 -12z m111 -123 l27 -55
-66 0 -66 0 14 23 c8 12 23 37 32 55 9 17 20 32 24 32 4 0 20 -25 35 -55z"/>
<path d="M1640 1413 c0 -3 27 -37 61 -75 l61 -68 -71 -77 c-39 -42 -71 -80
-71 -85 0 -4 27 -8 59 -8 59 0 59 0 109 55 28 30 53 55 57 55 4 0 29 -25 57
-55 50 -55 50 -55 109 -55 32 0 59 3 59 8 0 4 -32 42 -71 85 l-71 77 61 69
c34 38 61 71 61 75 0 3 -26 6 -57 6 -57 0 -59 -1 -103 -52 l-44 -51 -46 51
c-46 51 -48 52 -103 52 -31 0 -57 -3 -57 -7z"/>
</g>
</svg>
